<?xml version="1.0" encoding="UTF-8" standalone="no"?>
<!-- Uploaded to: SVG Repo, www.svgrepo.com, Generator: SVG Repo Mixer Tools -->

<svg
   fill="#000000"
   height="1000"
   width="1000"
   version="1.1"
   id="Layer_1"
   viewBox="0 0 490.73875 490.73875"
   xml:space="preserve"
   sodipodi:docname="remote-control.svg"
   inkscape:version="1.2.2 (732a01da63, 2022-12-09)"
   xmlns:inkscape="http://www.inkscape.org/namespaces/inkscape"
   xmlns:sodipodi="http://sodipodi.sourceforge.net/DTD/sodipodi-0.dtd"
   xmlns="http://www.w3.org/2000/svg"
   xmlns:svg="http://www.w3.org/2000/svg"><defs
   id="defs2150" /><sodipodi:namedview
   id="namedview2148"
   pagecolor="#8a8a8a"
   bordercolor="#666666"
   borderopacity="1.0"
   inkscape:showpageshadow="2"
   inkscape:pageopacity="0"
   inkscape:pagecheckerboard="false"
   inkscape:deskcolor="#d1d1d1"
   showgrid="false"
   inkscape:zoom="0.69044441"
   inkscape:cx="409.15676"
   inkscape:cy="472.15966"
   inkscape:window-width="1920"
   inkscape:window-height="1055"
   inkscape:window-x="-7"
   inkscape:window-y="1343"
   inkscape:window-maximized="1"
   inkscape:current-layer="Layer_1" />



















<g
   id="g1632"
   transform="translate(29.851828,-7.8183358)"><g
     id="g2031"
     style="fill:#ffffff;fill-opacity:1"
     transform="matrix(0.84249284,0,0,0.86960464,43.596294,91.624664)">
	<g
   id="g2029"
   style="fill:#ffffff;fill-opacity:1">
		<path
   d="m 242.999,93.805 -6.141,-6.206 c -4.267,-4.267 -11.119,-4.267 -15.386,0 -4.267,4.267 -4.267,11.119 0,15.321 l 6.206,6.206 c 4.202,4.202 11.119,4.202 15.321,0 4.202,-4.202 4.202,-11.055 0,-15.321 z"
   id="path2027"
   style="fill:#ffffff;fill-opacity:1" />
	</g>
</g><g
     id="g2037"
     style="fill:#ffffff;fill-opacity:1"
     transform="matrix(0.84249284,0,0,0.86960464,43.596294,91.624664)">
	<g
   id="g2035"
   style="fill:#ffffff;fill-opacity:1">
		<path
   d="m 210.224,126.645 -6.141,-6.206 c -4.267,-4.267 -11.119,-4.267 -15.386,0 -4.267,4.267 -4.267,11.119 0,15.321 l 6.206,6.206 c 4.202,4.202 11.119,4.202 15.321,0 4.202,-4.202 4.202,-11.054 0,-15.321 z"
   id="path2033"
   style="fill:#ffffff;fill-opacity:1" />
	</g>
</g><g
     id="g2043"
     style="fill:#ffffff;fill-opacity:1"
     transform="matrix(0.84249284,0,0,0.86960464,43.596294,91.624664)">
	<g
   id="g2041"
   style="fill:#ffffff;fill-opacity:1">
		<path
   d="m 240.995,157.288 -6.141,-6.206 c -4.267,-4.267 -11.119,-4.267 -15.386,0 -4.267,4.267 -4.267,11.119 0,15.321 l 6.206,6.206 c 4.202,4.202 11.119,4.202 15.321,0 4.202,-4.202 4.202,-11.055 0,-15.321 z"
   id="path2039"
   style="fill:#ffffff;fill-opacity:1" />
	</g>
</g><g
     id="g2049"
     style="fill:#ffffff;fill-opacity:1"
     transform="matrix(0.84249284,0,0,0.86960464,43.596294,91.624664)">
	<g
   id="g2047"
   style="fill:#ffffff;fill-opacity:1">
		<path
   d="m 271.767,188.059 -6.141,-6.206 c -4.267,-4.267 -11.119,-4.267 -15.386,0 -4.267,4.267 -4.267,11.119 0,15.321 l 6.206,6.206 c 4.202,4.202 11.119,4.202 15.321,0 4.202,-4.201 4.202,-11.054 0,-15.321 z"
   id="path2045"
   style="fill:#ffffff;fill-opacity:1" />
	</g>
</g><g
     id="g2055"
     style="fill:#ffffff;fill-opacity:1"
     transform="matrix(0.84249284,0,0,0.86960464,43.596294,91.624664)">
	<g
   id="g2053"
   style="fill:#ffffff;fill-opacity:1">
		<path
   d="m 177.383,159.421 -6.141,-6.206 c -4.267,-4.267 -11.119,-4.267 -15.386,0 -4.267,4.267 -4.267,11.119 0,15.321 l 6.206,6.206 c 4.202,4.202 11.119,4.202 15.321,0 4.202,-4.202 4.202,-11.054 0,-15.321 z"
   id="path2051"
   style="fill:#ffffff;fill-opacity:1" />
	</g>
</g><g
     id="g2061"
     style="fill:#ffffff;fill-opacity:1"
     transform="matrix(0.84249284,0,0,0.86960464,43.596294,91.624664)">
	<g
   id="g2059"
   style="fill:#ffffff;fill-opacity:1">
		<path
   d="m 208.155,190.063 -6.141,-6.206 c -4.267,-4.267 -11.119,-4.267 -15.386,0 -4.267,4.267 -4.267,11.119 0,15.321 l 6.206,6.206 c 4.202,4.202 11.119,4.202 15.321,0 4.202,-4.202 4.202,-11.054 0,-15.321 z"
   id="path2057"
   style="fill:#ffffff;fill-opacity:1" />
	</g>
</g><g
     id="g2067"
     style="fill:#ffffff;fill-opacity:1"
     transform="matrix(0.84249284,0,0,0.86960464,43.596294,91.624664)">
	<g
   id="g2065"
   style="fill:#ffffff;fill-opacity:1">
		<path
   d="m 238.927,220.77 -6.141,-6.206 c -4.267,-4.267 -11.119,-4.267 -15.386,0 -4.267,4.267 -4.267,11.119 0,15.321 l 6.206,6.206 c 4.202,4.202 11.119,4.202 15.321,0 4.202,-4.201 4.202,-11.054 0,-15.321 z"
   id="path2063"
   style="fill:#ffffff;fill-opacity:1" />
	</g>
</g><g
     id="g2073"
     style="fill:#ffffff;fill-opacity:1"
     transform="matrix(0.84249284,0,0,0.86960464,43.596294,91.624664)">
	<g
   id="g2071"
   style="fill:#ffffff;fill-opacity:1">
		<path
   d="m 144.543,192.132 -6.141,-6.206 c -4.267,-4.267 -11.119,-4.267 -15.386,0 -4.267,4.267 -4.267,11.119 0,15.321 l 6.206,6.206 c 4.202,4.202 11.119,4.202 15.321,0 4.202,-4.202 4.202,-11.054 0,-15.321 z"
   id="path2069"
   style="fill:#ffffff;fill-opacity:1" />
	</g>
</g><g
     id="g2079"
     style="fill:#ffffff;fill-opacity:1"
     transform="matrix(0.84249284,0,0,0.86960464,43.596294,91.624664)">
	<g
   id="g2077"
   style="fill:#ffffff;fill-opacity:1">
		<path
   d="m 175.315,222.839 -6.141,-6.206 c -4.267,-4.267 -11.119,-4.267 -15.386,0 -4.267,4.267 -4.267,11.119 0,15.321 l 6.206,6.206 c 4.202,4.202 11.119,4.202 15.321,0 4.202,-4.202 4.202,-11.054 0,-15.321 z"
   id="path2075"
   style="fill:#ffffff;fill-opacity:1" />
	</g>
</g><g
     id="g2085"
     style="fill:#ffffff;fill-opacity:1"
     transform="matrix(0.84249284,0,0,0.86960464,43.596294,91.624664)">
	<g
   id="g2083"
   style="fill:#ffffff;fill-opacity:1">
		<path
   d="m 206.086,253.546 -6.141,-6.206 c -4.267,-4.267 -11.119,-4.267 -15.386,0 -4.267,4.267 -4.267,11.119 0,15.321 l 6.206,6.206 c 4.202,4.202 11.119,4.202 15.321,0 4.202,-4.202 4.202,-11.054 0,-15.321 z"
   id="path2081"
   style="fill:#ffffff;fill-opacity:1" />
	</g>
</g><g
     id="g2091"
     style="fill:#ffffff;fill-opacity:1"
     transform="matrix(0.84249284,0,0,0.86960464,43.596294,91.624664)">
	<g
   id="g2089"
   style="fill:#ffffff;fill-opacity:1">
		<path
   d="m 173.375,286.257 -6.141,-6.206 c -4.267,-4.267 -11.119,-4.267 -15.386,0 -4.267,4.267 -4.267,11.119 0,15.321 l 6.206,6.206 c 4.202,4.202 11.119,4.202 15.321,0 4.202,-4.202 4.202,-11.054 0,-15.321 z"
   id="path2087"
   style="fill:#ffffff;fill-opacity:1" />
	</g>
</g><g
     id="g2097"
     style="fill:#ffffff;fill-opacity:1"
     transform="matrix(0.84249284,0,0,0.86960464,43.596294,91.624664)">
	<g
   id="g2095"
   style="fill:#ffffff;fill-opacity:1">
		<path
   d="m 142.604,255.615 -6.141,-6.206 c -4.267,-4.267 -11.119,-4.267 -15.386,0 -4.267,4.267 -4.267,11.119 0,15.321 l 6.206,6.206 c 4.202,4.202 11.119,4.202 15.321,0 4.202,-4.202 4.202,-11.054 0,-15.321 z"
   id="path2093"
   style="fill:#ffffff;fill-opacity:1" />
	</g>
</g><g
     id="g2103"
     style="fill:#ffffff;fill-opacity:1"
     transform="matrix(0.84249284,0,0,0.86960464,43.596294,91.624664)">
	<g
   id="g2101"
   style="fill:#ffffff;fill-opacity:1">
		<path
   d="m 111.767,224.843 -6.141,-6.206 c -4.267,-4.267 -11.119,-4.267 -15.386,0 -4.267,4.267 -4.267,11.119 0,15.321 l 6.206,6.206 c 4.202,4.202 11.119,4.202 15.321,0 4.202,-4.202 4.202,-11.054 0,-15.321 z"
   id="path2099"
   style="fill:#ffffff;fill-opacity:1" />
	</g>
</g><g
     id="g2109"
     style="fill:#ffffff;fill-opacity:1"
     transform="matrix(0.84249284,0,0,0.86960464,43.596294,91.624664)">
	<g
   id="g2107"
   style="fill:#ffffff;fill-opacity:1">
		<path
   d="m 78.862,257.619 -6.141,-6.206 c -4.267,-4.267 -11.119,-4.267 -15.386,0 -4.267,4.267 -4.267,11.119 0,15.321 l 6.206,6.206 c 4.202,4.202 11.119,4.202 15.321,0 4.202,-4.202 4.202,-11.054 0,-15.321 z"
   id="path2105"
   style="fill:#ffffff;fill-opacity:1" />
	</g>
</g><g
     id="g2115"
     style="fill:#ffffff;fill-opacity:1"
     transform="matrix(0.84249284,0,0,0.86960464,43.596294,91.624664)">
	<g
   id="g2113"
   style="fill:#ffffff;fill-opacity:1">
		<path
   d="m 109.698,288.261 -6.141,-6.206 c -4.267,-4.267 -11.119,-4.267 -15.386,0 -4.267,4.267 -4.267,11.119 0,15.321 l 6.206,6.206 c 4.202,4.202 11.119,4.202 15.321,0 4.202,-4.202 4.203,-11.054 0,-15.321 z"
   id="path2111"
   style="fill:#ffffff;fill-opacity:1" />
	</g>
</g><g
     id="g2121"
     style="fill:#ffffff;fill-opacity:1"
     transform="matrix(0.84249284,0,0,0.86960464,43.596294,91.624664)">
	<g
   id="g2119"
   style="fill:#ffffff;fill-opacity:1">
		<path
   d="m 140.47,319.033 -6.141,-6.206 c -4.267,-4.267 -11.119,-4.267 -15.386,0 -4.267,4.267 -4.267,11.119 0,15.321 l 6.206,6.206 c 4.202,4.202 11.119,4.202 15.321,0 4.202,-4.202 4.202,-11.054 0,-15.321 z"
   id="path2117"
   style="fill:#ffffff;fill-opacity:1" />
	</g>
</g><g
     id="g2127"
     style="fill:#ffffff;fill-opacity:1"
     transform="matrix(0.84249284,0,0,0.86960464,43.596294,91.624664)">
	<g
   id="g2125"
   style="fill:#ffffff;fill-opacity:1">
		<path
   d="m 304.608,155.348 -6.206,-6.335 c -4.267,-4.267 -11.119,-4.267 -15.386,0 -4.267,4.267 -4.267,11.119 0,15.321 l 6.335,6.335 c 2.069,2.069 4.848,3.168 7.628,3.168 2.78,0 5.56,-1.099 7.628,-3.168 4.267,-4.266 4.267,-11.119 10e-4,-15.321 z"
   id="path2123"
   style="fill:#ffffff;fill-opacity:1" />
	</g>
</g><g
     id="g2133"
     style="fill:#ffffff;fill-opacity:1"
     transform="matrix(0.84249284,0,0,0.86960464,43.596294,91.624664)">
	<g
   id="g2131"
   style="fill:#ffffff;fill-opacity:1">
		<path
   d="m 316.89,0.067 c -6.012,0 -10.925,4.849 -10.925,10.796 0,5.947 4.848,10.796 10.925,10.796 29.673,0 53.851,24.113 53.851,53.786 0,5.948 4.848,10.796 10.925,10.796 6.077,0 10.925,-4.848 10.925,-10.796 C 392.527,33.878 358.587,0.067 316.89,0.067 Z"
   id="path2129"
   style="fill:#ffffff;fill-opacity:1" />
	</g>
</g><g
     id="g2139"
     style="fill:#ffffff;fill-opacity:1"
     transform="matrix(0.84249284,0,0,0.86960464,43.596294,91.624664)">
	<g
   id="g2137"
   style="fill:#ffffff;fill-opacity:1">
		<path
   d="m 308.292,44.803 c -6.012,0 -10.925,4.849 -10.925,10.796 -0.065,5.947 4.784,10.925 10.796,10.925 9.826,0 17.842,7.952 17.842,17.778 0,5.948 4.848,10.796 10.925,10.796 6.012,0 10.925,-4.848 10.925,-10.796 10e-4,-21.786 -17.777,-39.499 -39.563,-39.499 z"
   id="path2135"
   style="fill:#ffffff;fill-opacity:1" />
	</g>
</g><g
     id="g2145"
     style="fill:#ffffff;fill-opacity:1"
     transform="matrix(0.84249284,0,0,0.86960464,43.596294,91.624664)">
	<g
   id="g2143"
   style="fill:#ffffff;fill-opacity:1">
		<path
   d="M 346.369,139.187 252.955,46.225 c -18.489,-18.36 -39.951,-6.206 -46.158,0 L 9.496,243.073 c -6.206,6.206 -17.842,28.186 0,45.964 l 93.285,93.091 c 20.04,19.911 39.951,6.206 46.158,0 L 346.369,185.15 c 12.736,-12.67 12.736,-33.293 0,-45.963 z m -15.45,30.707 -197.43,196.978 c -4.073,4.073 -11.313,4.073 -15.386,0 L 24.818,273.781 c -5.689,-5.689 -2.069,-13.317 0,-15.321 L 222.248,61.482 c 2.069,-2.004 9.503,-5.818 15.386,0 l 93.285,93.091 c 4.266,4.202 4.266,11.054 0,15.321 z"
   id="path2141"
   style="fill:#ffffff;fill-opacity:1" />
	</g>
</g></g>
</svg>
